<svg width="892" height="559" viewBox="0 0 892 559" fill="none" xmlns="http://www.w3.org/2000/svg">
<g id="undraw_stranded_traveler_pdbw 1">
<path id="Vector" d="M232.726 549C351.317 549 447.453 544.523 447.453 539C447.453 533.477 351.317 529 232.726 529C114.136 529 18 533.477 18 539C18 544.523 114.136 549 232.726 549Z" fill="#E6E6E6"/>
<path id="Vector_2" d="M185.759 324.37C180.153 324.376 174.779 326.606 170.815 330.57C166.851 334.534 164.621 339.908 164.615 345.514V508.05C164.621 513.656 166.851 519.031 170.815 522.995C174.779 526.959 180.153 529.188 185.759 529.195H288.514C294.12 529.188 299.494 526.959 303.458 522.995C307.422 519.031 309.652 513.656 309.658 508.05V345.514C309.652 339.908 307.422 334.534 303.458 330.57C299.494 326.606 294.12 324.376 288.514 324.37H185.759Z" fill="#3F3D56"/>
<path id="Vector_3" d="M188.625 322.9H182.745V529.685H188.625V322.9Z" fill="#4D4D4D"/>
<path id="Vector_4" d="M205.286 322.9H199.406V529.685H205.286V322.9Z" fill="#4D4D4D"/>
<path id="Vector_5" d="M221.946 322.9H216.066V529.685H221.946V322.9Z" fill="#4D4D4D"/>
<path id="Vector_6" d="M238.607 322.9H232.726V529.685H238.607V322.9Z" fill="#4D4D4D"/>
<path id="Vector_7" d="M255.267 322.9H249.387V529.685H255.267V322.9Z" fill="#4D4D4D"/>
<path id="Vector_8" d="M271.927 322.9H266.047V529.685H271.927V322.9Z" fill="#4D4D4D"/>
<path id="Vector_9" d="M288.588 322.9H282.708V529.685H288.588V322.9Z" fill="#4D4D4D"/>
<path id="Vector_10" d="M287.008 307.219C290.85 300.684 292.876 293.24 292.875 285.659H188.748C188.747 293.24 190.773 300.684 194.615 307.219H173.435C173.435 318.586 183.033 327.8 194.873 327.8H221.109C225.517 329.104 230.09 329.764 234.686 329.76H246.937C251.533 329.764 256.107 329.104 260.514 327.8H286.75C298.59 327.8 308.188 318.586 308.188 307.219H287.008Z" fill="#2F2E41"/>
<path id="Vector_11" d="M266.141 455.693C265.948 457.782 266.392 459.881 267.416 461.713C268.439 463.545 269.994 465.024 271.875 465.954L271.927 465.983C281.729 471.574 289.749 475.962 299.267 475.154C300.226 475.069 301.153 474.764 301.975 474.262C302.797 473.76 303.492 473.075 304.005 472.261C304.519 471.447 304.838 470.525 304.937 469.567C305.036 468.609 304.913 467.642 304.577 466.739L291.038 440.993C283.173 431.83 277.631 431.821 268.007 439.522L266.141 455.693Z" fill="#2F2E41"/>
<path id="Vector_12" d="M226.793 152.375H189.12C187.413 152.378 185.751 151.831 184.38 150.815C183.008 149.799 182.001 148.368 181.507 146.735C180.347 142.869 178.849 139.117 178.825 135.715C178.733 122.511 179.389 114.106 185.195 108.764C204.542 94.0949 218.559 96.7933 231.746 112.195C236.376 120.799 235.187 133.64 232.683 147.44C232.436 148.822 231.71 150.074 230.634 150.976C229.557 151.878 228.198 152.373 226.793 152.375Z" fill="#2F2E41"/>
<path id="Vector_13" d="M207.246 169.036C221.318 169.036 232.726 157.628 232.726 143.555C232.726 129.483 221.318 118.075 207.246 118.075C193.173 118.075 181.765 129.483 181.765 143.555C181.765 157.628 193.173 169.036 207.246 169.036Z" fill="#A0616A"/>
<path id="Vector_14" d="M226.846 194.517L191.565 195.497L188.625 157.276L222.926 156.296L226.846 194.517Z" fill="#A0616A"/>
<path id="Vector_15" d="M286.628 285.659L262.283 296.927C258.204 306.604 252.58 306.325 245.467 296.439C238.677 308.33 224.053 301.204 216.908 296.011C212.302 293.663 207.208 292.434 202.039 292.424C196.87 292.413 191.771 293.621 187.155 295.949L161.185 180.796C169.19 173.914 179.857 169.591 190.095 166.586L210.186 191.576L223.906 167.076C233.442 159.409 246.837 159.395 261.147 161.196L269.502 205.865C263.992 241.102 272.278 258.775 286.628 285.659Z" fill="#343A40"/>
<g id="leftleg">
<path id="Vector_16" d="M210.092 455.693C210.285 457.782 209.841 459.881 208.817 461.713C207.794 463.545 206.239 465.024 204.358 465.954L204.306 465.983C194.504 471.574 186.484 475.962 176.966 475.154C176.007 475.069 175.08 474.764 174.258 474.262C173.436 473.76 172.741 473.075 172.228 472.261C171.714 471.447 171.395 470.525 171.296 469.567C171.197 468.609 171.32 467.642 171.656 466.739L185.195 440.993C193.06 431.83 198.602 431.821 208.226 439.522L210.092 455.693Z" fill="#2F2E41"/>
<path id="Vector_17" d="M206.266 437.562L185.685 439.522L155.197 304.775C154.504 301.655 154.52 298.419 155.245 295.305C155.969 292.192 157.384 289.281 159.384 286.788C161.384 284.294 163.919 282.282 166.801 280.899C169.683 279.516 172.838 278.799 176.035 278.799C179.074 278.799 182.078 279.448 184.847 280.702C187.615 281.957 190.083 283.788 192.087 286.074C194.09 288.359 195.582 291.046 196.464 293.955C197.345 296.863 197.595 299.927 197.197 302.94L193.525 330.74L206.266 437.562Z" fill="#2F2E41"/>
</g>
<path id="Vector_18" d="M268.007 439.522L288.588 438.542L319.076 304.775C319.769 301.655 319.753 298.419 319.029 295.305C318.304 292.192 316.889 289.281 314.889 286.788C312.889 284.294 310.354 282.282 307.472 280.899C304.59 279.516 301.435 278.799 298.238 278.799C295.199 278.799 292.195 279.448 289.427 280.702C286.658 281.957 284.19 283.788 282.186 286.074C280.183 288.359 278.691 291.046 277.809 293.955C276.928 296.863 276.678 299.927 277.076 302.94L280.748 330.74L268.007 439.522Z" fill="#2F2E41"/>
<path id="Vector_19" d="M334.901 246.144L317.498 291.049C307.984 283.774 300.312 282.781 289.758 286.639C286.84 286.234 284.668 279.819 284.668 276.872C284.668 275.353 285.253 273.893 286.303 272.794C287.352 271.696 288.785 271.045 290.302 270.976L306.228 270.252C309.142 262.622 310.913 254.605 311.483 246.458C319.125 244.29 327.204 244.181 334.901 246.144Z" fill="#A0616A"/>
<path id="Vector_20" d="M336.609 247.438L340.852 231.607C342.704 225.817 342.522 219.568 340.336 213.896C338.149 208.224 334.09 203.469 328.83 200.421L261.147 161.196L260.167 204.317L310.148 225.877C311.529 233.214 311.977 240.695 311.483 248.144C319.28 245.827 328.793 245.335 336.609 247.438Z" fill="#343A40"/>
<path id="Vector_21" d="M232.236 129.345L205.776 134.245C203.33 134.245 200.909 133.763 198.65 132.828C196.391 131.892 194.338 130.52 192.609 128.791C190.88 127.062 189.508 125.009 188.573 122.75C187.637 120.491 187.155 118.07 187.155 115.625H233.216L232.236 129.345Z" fill="#2F2E41"/>
<path id="Vector_22" d="M183.725 139.145C185.078 139.145 186.175 136.951 186.175 134.245C186.175 131.539 185.078 129.345 183.725 129.345C182.372 129.345 181.275 131.539 181.275 134.245C181.275 136.951 182.372 139.145 183.725 139.145Z" fill="#A0616A"/>
<path id="Vector_23" d="M264.577 212.237H264.293V204.441C264.293 203.848 264.176 203.261 263.949 202.714C263.722 202.166 263.39 201.669 262.971 201.25C262.552 200.831 262.054 200.499 261.507 200.272C260.959 200.045 260.373 199.928 259.78 199.928H243.262C242.67 199.928 242.083 200.045 241.535 200.272C240.988 200.499 240.49 200.831 240.071 201.25C239.652 201.669 239.32 202.166 239.093 202.714C238.866 203.261 238.75 203.848 238.75 204.441V247.213C238.75 247.806 238.866 248.392 239.093 248.94C239.32 249.487 239.652 249.985 240.071 250.404C240.49 250.823 240.988 251.155 241.535 251.382C242.083 251.609 242.67 251.725 243.262 251.725H259.78C260.373 251.725 260.959 251.609 261.507 251.382C262.054 251.155 262.552 250.823 262.971 250.404C263.39 249.985 263.722 249.487 263.949 248.94C264.176 248.392 264.293 247.806 264.293 247.213V217.787H264.577V212.237Z" fill="#E6E6E6"/>
<path id="Vector_24" d="M250.857 216.567C253.022 216.567 254.777 214.812 254.777 212.647C254.777 210.482 253.022 208.727 250.857 208.727C248.692 208.727 246.937 210.482 246.937 212.647C246.937 214.812 248.692 216.567 250.857 216.567Z" fill="#343A40"/>
<path id="Vector_25" d="M247.427 248.418C227.268 264.243 207.056 277.415 192.055 279.289L189.605 252.338C204.012 250.261 223.275 240.77 243.507 229.797L253.402 224.652C254.998 223.822 256.774 223.401 258.572 223.426C260.371 223.451 262.135 223.921 263.707 224.795C265.279 225.668 266.61 226.918 267.581 228.432C268.552 229.946 269.132 231.677 269.27 233.471C269.465 236.014 268.761 238.545 267.28 240.622C265.8 242.699 263.636 244.189 261.168 244.833L247.427 248.418Z" fill="#A0616A"/>
<path id="Vector_26" d="M209.206 279.779L169.025 280.759C155.505 254.235 150.598 225.931 153.344 196.047C153.344 192.853 154.119 189.707 155.601 186.878C157.083 184.05 159.229 181.622 161.854 179.805L166.085 176.876C184.172 203.727 195.391 228.661 191.565 249.398L203.326 248.418C195.71 258.697 199.235 269.179 209.206 279.779Z" fill="#343A40"/>
</g>
</svg>
