<svg width="52" height="162" viewBox="0 0 52 162" fill="none" xmlns="http://www.w3.org/2000/svg">
<path id="Vector" d="M0.00723267 161.522L20.5877 160.542L51.076 26.7753C51.7694 23.6549 51.7532 20.4186 51.0285 17.3053C50.3039 14.192 48.8892 11.2812 46.8891 8.78781C44.8889 6.29439 42.3543 4.28202 39.4724 2.89923C36.5904 1.51644 33.4347 0.798551 30.2382 0.798553V0.798553C27.199 0.798552 24.1947 1.44757 21.4265 2.70218C18.6583 3.95679 16.1899 5.78806 14.1864 8.07352C12.183 10.359 10.6907 13.0459 9.80933 15.9546C8.92798 18.8633 8.67791 21.9266 9.07587 24.9397L12.7476 52.7398L0.00723267 161.522Z" fill="#2F2E41"/>
</svg>
