<svg width="27" height="53" viewBox="0 0 27 53" fill="none" xmlns="http://www.w3.org/2000/svg">
<path id="Vector" d="M26.5771 13.2372H26.2925V5.44067C26.2925 4.84809 26.1758 4.26134 25.9491 3.71387C25.7223 3.16639 25.3899 2.66893 24.9709 2.24991C24.5519 1.83089 24.0544 1.49853 23.507 1.27176C22.9595 1.04499 22.3727 0.928252 21.7801 0.928253H5.26212C4.66954 0.928252 4.08275 1.04499 3.53528 1.27176C2.98781 1.49853 2.49037 1.83089 2.07135 2.24991C1.65233 2.66893 1.31994 3.16639 1.09317 3.71387C0.866399 4.26134 0.749695 4.84809 0.749695 5.44067V48.213C0.749695 48.8056 0.866399 49.3924 1.09317 49.9398C1.31994 50.4873 1.65233 50.9848 2.07135 51.4038C2.49037 51.8228 2.98781 52.1552 3.53528 52.382C4.08275 52.6087 4.66954 52.7254 5.26212 52.7254H21.7801C22.3727 52.7254 22.9595 52.6087 23.507 52.382C24.0544 52.1552 24.5519 51.8228 24.9709 51.4038C25.3899 50.9848 25.7223 50.4873 25.9491 49.9398C26.1758 49.3924 26.2925 48.8056 26.2925 48.213V18.7869H26.5771V13.2372Z" fill="#E6E6E6"/>
</svg>
