<svg width="890" height="460" viewBox="0 0 890 460" fill="none" xmlns="http://www.w3.org/2000/svg">
<g id="undraw_welcome_cats_thqn 1">
<g clip-path="url(#clip0)">
<path id="Vector" d="M444.538 410.603C690.049 410.603 889.076 405.036 889.076 398.169C889.076 391.301 690.049 385.734 444.538 385.734C199.026 385.734 0 391.301 0 398.169C0 405.036 199.026 410.603 444.538 410.603Z" fill="#E6E6E6"/>
<g id="Vector_2" filter="url(#filter0_d)">
<mask id="path-3-outside-1" maskUnits="userSpaceOnUse" x="406.736" y="247.788" width="76" height="150" fill="black">
<rect fill="white" x="406.736" y="247.788" width="76" height="150"/>
<path d="M481.05 263.451V248.788H407.736V249.705V263.451V381.67V396.333H422.399H481.05V381.67H422.399V263.451H481.05Z"/>
</mask>
<path d="M481.05 263.451V248.788H407.736V249.705V263.451V381.67V396.333H422.399H481.05V381.67H422.399V263.451H481.05Z" fill="#343A40"/>
<path d="M481.05 263.451V248.788H407.736V249.705V263.451V381.67V396.333H422.399H481.05V381.67H422.399V263.451H481.05Z" stroke="#343A40" stroke-width="2" mask="url(#path-3-outside-1)"/>
</g>
<g id="Vector_3" filter="url(#filter1_d)">
<mask id="path-4-outside-2" maskUnits="userSpaceOnUse" x="515.791" y="247.788" width="76" height="150" fill="black">
<rect fill="white" x="515.791" y="247.788" width="76" height="150"/>
<path d="M516.791 248.788V396.333H590.105V248.788H516.791ZM575.442 381.67H531.453V263.451H575.442V381.67Z"/>
</mask>
<path d="M516.791 248.788V396.333H590.105V248.788H516.791ZM575.442 381.67H531.453V263.451H575.442V381.67Z" fill="#343A40"/>
<path d="M516.791 248.788V396.333H590.105V248.788H516.791ZM575.442 381.67H531.453V263.451H575.442V381.67Z" stroke="#343A40" stroke-width="2" mask="url(#path-4-outside-2)"/>
</g>
<g id="Vector_4" filter="url(#filter2_d)">
<mask id="path-5-outside-3" maskUnits="userSpaceOnUse" x="297.681" y="248.705" width="76" height="149" fill="black">
<rect fill="white" x="297.681" y="248.705" width="76" height="149"/>
<path d="M313.344 381.67V249.705H298.681V381.67V396.333H313.344H371.995V381.67H313.344Z"/>
</mask>
<path d="M313.344 381.67V249.705H298.681V381.67V396.333H313.344H371.995V381.67H313.344Z" fill="#343A40"/>
<path d="M313.344 381.67V249.705H298.681V381.67V396.333H313.344H371.995V381.67H313.344Z" stroke="#343A40" stroke-width="2" mask="url(#path-5-outside-3)"/>
</g>
<g id="Vector_5" filter="url(#filter3_d)">
<mask id="path-6-outside-4" maskUnits="userSpaceOnUse" x="191.376" y="247.788" width="76" height="150" fill="black">
<rect fill="white" x="191.376" y="247.788" width="76" height="150"/>
<path d="M265.69 263.451V248.788H192.376V249.705V263.451V314.771V329.434V381.67V396.333H207.039H265.69V381.67H207.039V329.434H265.69V314.771H207.039V263.451H265.69Z"/>
</mask>
<path d="M265.69 263.451V248.788H192.376V249.705V263.451V314.771V329.434V381.67V396.333H207.039H265.69V381.67H207.039V329.434H265.69V314.771H207.039V263.451H265.69Z" fill="#343A40"/>
<path d="M265.69 263.451V248.788H192.376V249.705V263.451V314.771V329.434V381.67V396.333H207.039H265.69V381.67H207.039V329.434H265.69V314.771H207.039V263.451H265.69Z" stroke="#343A40" stroke-width="2" mask="url(#path-6-outside-4)"/>
</g>
<g id="Vector_6" filter="url(#filter4_d)">
<mask id="path-7-outside-5" maskUnits="userSpaceOnUse" x="765.058" y="247.788" width="76" height="150" fill="black">
<rect fill="white" x="765.058" y="247.788" width="76" height="150"/>
<path d="M839.372 263.451V248.788H766.058V249.705V263.451V314.771V329.434V381.67V396.333H780.721H839.372V381.67H780.721V329.434H839.372V314.771H780.721V263.451H839.372Z"/>
</mask>
<path d="M839.372 263.451V248.788H766.058V249.705V263.451V314.771V329.434V381.67V396.333H780.721H839.372V381.67H780.721V329.434H839.372V314.771H780.721V263.451H839.372Z" fill="#343A40"/>
<path d="M839.372 263.451V248.788H766.058V249.705V263.451V314.771V329.434V381.67V396.333H780.721H839.372V381.67H780.721V329.434H839.372V314.771H780.721V263.451H839.372Z" stroke="#343A40" stroke-width="2" mask="url(#path-7-outside-5)"/>
</g>
<g id="Vector_7" filter="url(#filter5_d)">
<mask id="path-8-outside-6" maskUnits="userSpaceOnUse" x="48.872" y="248.247" width="110" height="150" fill="black">
<rect fill="white" x="48.872" y="248.247" width="110" height="150"/>
<path d="M142.889 249.705V370.89L104.228 332.23L104.14 332.319L104.058 332.237L64.535 371.76V249.247H49.872V395.875H64.535V392.496L104.147 352.884L142.889 391.627V396.333H157.552V249.705H142.889Z"/>
</mask>
<path d="M142.889 249.705V370.89L104.228 332.23L104.14 332.319L104.058 332.237L64.535 371.76V249.247H49.872V395.875H64.535V392.496L104.147 352.884L142.889 391.627V396.333H157.552V249.705H142.889Z" fill="#343A40"/>
<path d="M142.889 249.705V370.89L104.228 332.23L104.14 332.319L104.058 332.237L64.535 371.76V249.247H49.872V395.875H64.535V392.496L104.147 352.884L142.889 391.627V396.333H157.552V249.705H142.889Z" stroke="#343A40" stroke-width="2" mask="url(#path-8-outside-6)"/>
</g>
<g id="Vector_8" filter="url(#filter6_d)">
<mask id="path-9-outside-7" maskUnits="userSpaceOnUse" x="623.47" y="248.247" width="110" height="150" fill="black">
<rect fill="white" x="623.47" y="248.247" width="110" height="150"/>
<path d="M717.488 249.705V253.083L677.876 292.695L639.133 253.953V249.247H624.47V395.875H639.133V274.689L677.794 313.35L677.883 313.261L677.964 313.342L717.488 273.819V396.333H732.15V249.705H717.488Z"/>
</mask>
<path d="M717.488 249.705V253.083L677.876 292.695L639.133 253.953V249.247H624.47V395.875H639.133V274.689L677.794 313.35L677.883 313.261L677.964 313.342L717.488 273.819V396.333H732.15V249.705H717.488Z" fill="#343A40"/>
<path d="M717.488 249.705V253.083L677.876 292.695L639.133 253.953V249.247H624.47V395.875H639.133V274.689L677.794 313.35L677.883 313.261L677.964 313.342L717.488 273.819V396.333H732.15V249.705H717.488Z" stroke="#343A40" stroke-width="2" mask="url(#path-9-outside-7)"/>
</g>
<g id="dots">
<g id="Vector_9">
<mask id="path-10-inside-8" fill="white">
<path d="M335.076 159.38C340.046 159.38 344.076 155.35 344.076 150.38C344.076 145.409 340.046 141.38 335.076 141.38C330.105 141.38 326.076 145.409 326.076 150.38C326.076 155.35 330.105 159.38 335.076 159.38Z"/>
</mask>
<path d="M335.076 159.38C340.046 159.38 344.076 155.35 344.076 150.38C344.076 145.409 340.046 141.38 335.076 141.38C330.105 141.38 326.076 145.409 326.076 150.38C326.076 155.35 330.105 159.38 335.076 159.38Z" fill="#343A40" stroke="black" stroke-width="2" mask="url(#path-10-inside-8)"/>
</g>
<path id="Vector_10" d="M113.076 259.38C118.046 259.38 122.076 255.35 122.076 250.38C122.076 245.409 118.046 241.38 113.076 241.38C108.105 241.38 104.076 245.409 104.076 250.38C104.076 255.35 108.105 259.38 113.076 259.38Z" fill="#343A40"/>
<path id="Vector_11" d="M291.076 459.38C296.046 459.38 300.076 455.35 300.076 450.38C300.076 445.409 296.046 441.38 291.076 441.38C286.105 441.38 282.076 445.409 282.076 450.38C282.076 455.35 286.105 459.38 291.076 459.38Z" fill="#343A40"/>
<path id="Vector_12" d="M517 186C521.971 186 526 181.971 526 177C526 172.029 521.971 168 517 168C512.029 168 508 172.029 508 177C508 181.971 512.029 186 517 186Z" fill="#343A40"/>
<path id="Vector_13" d="M791.076 215.38C796.046 215.38 800.076 211.35 800.076 206.38C800.076 201.409 796.046 197.38 791.076 197.38C786.105 197.38 782.076 201.409 782.076 206.38C782.076 211.35 786.105 215.38 791.076 215.38Z" fill="#343A40"/>
<path id="Vector_14" d="M782.076 451.38C787.046 451.38 791.076 447.35 791.076 442.38C791.076 437.409 787.046 433.38 782.076 433.38C777.105 433.38 773.076 437.409 773.076 442.38C773.076 447.35 777.105 451.38 782.076 451.38Z" fill="#343A40"/>
<path id="Vector_15" d="M677.076 377.38C682.046 377.38 686.076 373.35 686.076 368.38C686.076 363.409 682.046 359.38 677.076 359.38C672.105 359.38 668.076 363.409 668.076 368.38C668.076 373.35 672.105 377.38 677.076 377.38Z" fill="#343A40"/>
</g>
</g>
</g>
<defs>
<filter id="filter0_d" x="402.736" y="247.788" width="83.314" height="157.545" filterUnits="userSpaceOnUse" color-interpolation-filters="sRGB">
<feFlood flood-opacity="0" result="BackgroundImageFix"/>
<feColorMatrix in="SourceAlpha" type="matrix" values="0 0 0 0 0 0 0 0 0 0 0 0 0 0 0 0 0 0 127 0"/>
<feOffset dy="4"/>
<feGaussianBlur stdDeviation="2"/>
<feColorMatrix type="matrix" values="0 0 0 0 0 0 0 0 0 0 0 0 0 0 0 0 0 0 0.25 0"/>
<feBlend mode="normal" in2="BackgroundImageFix" result="effect1_dropShadow"/>
<feBlend mode="normal" in="SourceGraphic" in2="effect1_dropShadow" result="shape"/>
</filter>
<filter id="filter1_d" x="511.791" y="247.788" width="83.314" height="157.544" filterUnits="userSpaceOnUse" color-interpolation-filters="sRGB">
<feFlood flood-opacity="0" result="BackgroundImageFix"/>
<feColorMatrix in="SourceAlpha" type="matrix" values="0 0 0 0 0 0 0 0 0 0 0 0 0 0 0 0 0 0 127 0"/>
<feOffset dy="4"/>
<feGaussianBlur stdDeviation="2"/>
<feColorMatrix type="matrix" values="0 0 0 0 0 0 0 0 0 0 0 0 0 0 0 0 0 0 0.25 0"/>
<feBlend mode="normal" in2="BackgroundImageFix" result="effect1_dropShadow"/>
<feBlend mode="normal" in="SourceGraphic" in2="effect1_dropShadow" result="shape"/>
</filter>
<filter id="filter2_d" x="293.681" y="248.705" width="83.314" height="156.628" filterUnits="userSpaceOnUse" color-interpolation-filters="sRGB">
<feFlood flood-opacity="0" result="BackgroundImageFix"/>
<feColorMatrix in="SourceAlpha" type="matrix" values="0 0 0 0 0 0 0 0 0 0 0 0 0 0 0 0 0 0 127 0"/>
<feOffset dy="4"/>
<feGaussianBlur stdDeviation="2"/>
<feColorMatrix type="matrix" values="0 0 0 0 0 0 0 0 0 0 0 0 0 0 0 0 0 0 0.25 0"/>
<feBlend mode="normal" in2="BackgroundImageFix" result="effect1_dropShadow"/>
<feBlend mode="normal" in="SourceGraphic" in2="effect1_dropShadow" result="shape"/>
</filter>
<filter id="filter3_d" x="187.376" y="247.788" width="83.314" height="157.545" filterUnits="userSpaceOnUse" color-interpolation-filters="sRGB">
<feFlood flood-opacity="0" result="BackgroundImageFix"/>
<feColorMatrix in="SourceAlpha" type="matrix" values="0 0 0 0 0 0 0 0 0 0 0 0 0 0 0 0 0 0 127 0"/>
<feOffset dy="4"/>
<feGaussianBlur stdDeviation="2"/>
<feColorMatrix type="matrix" values="0 0 0 0 0 0 0 0 0 0 0 0 0 0 0 0 0 0 0.25 0"/>
<feBlend mode="normal" in2="BackgroundImageFix" result="effect1_dropShadow"/>
<feBlend mode="normal" in="SourceGraphic" in2="effect1_dropShadow" result="shape"/>
</filter>
<filter id="filter4_d" x="761.058" y="247.788" width="83.314" height="157.545" filterUnits="userSpaceOnUse" color-interpolation-filters="sRGB">
<feFlood flood-opacity="0" result="BackgroundImageFix"/>
<feColorMatrix in="SourceAlpha" type="matrix" values="0 0 0 0 0 0 0 0 0 0 0 0 0 0 0 0 0 0 127 0"/>
<feOffset dy="4"/>
<feGaussianBlur stdDeviation="2"/>
<feColorMatrix type="matrix" values="0 0 0 0 0 0 0 0 0 0 0 0 0 0 0 0 0 0 0.25 0"/>
<feBlend mode="normal" in2="BackgroundImageFix" result="effect1_dropShadow"/>
<feBlend mode="normal" in="SourceGraphic" in2="effect1_dropShadow" result="shape"/>
</filter>
<filter id="filter5_d" x="44.872" y="248.247" width="117.68" height="157.086" filterUnits="userSpaceOnUse" color-interpolation-filters="sRGB">
<feFlood flood-opacity="0" result="BackgroundImageFix"/>
<feColorMatrix in="SourceAlpha" type="matrix" values="0 0 0 0 0 0 0 0 0 0 0 0 0 0 0 0 0 0 127 0"/>
<feOffset dy="4"/>
<feGaussianBlur stdDeviation="2"/>
<feColorMatrix type="matrix" values="0 0 0 0 0 0 0 0 0 0 0 0 0 0 0 0 0 0 0.25 0"/>
<feBlend mode="normal" in2="BackgroundImageFix" result="effect1_dropShadow"/>
<feBlend mode="normal" in="SourceGraphic" in2="effect1_dropShadow" result="shape"/>
</filter>
<filter id="filter6_d" x="619.47" y="248.247" width="117.68" height="157.086" filterUnits="userSpaceOnUse" color-interpolation-filters="sRGB">
<feFlood flood-opacity="0" result="BackgroundImageFix"/>
<feColorMatrix in="SourceAlpha" type="matrix" values="0 0 0 0 0 0 0 0 0 0 0 0 0 0 0 0 0 0 127 0"/>
<feOffset dy="4"/>
<feGaussianBlur stdDeviation="2"/>
<feColorMatrix type="matrix" values="0 0 0 0 0 0 0 0 0 0 0 0 0 0 0 0 0 0 0.25 0"/>
<feBlend mode="normal" in2="BackgroundImageFix" result="effect1_dropShadow"/>
<feBlend mode="normal" in="SourceGraphic" in2="effect1_dropShadow" result="shape"/>
</filter>
<clipPath id="clip0">
<rect width="889.076" height="459.38" fill="white"/>
</clipPath>
</defs>
</svg>
